<svg width="0" height="0" class="hidden">
  <symbol xmlns="http://www.w3.org/2000/svg" fill="none" viewBox="0 0 24 24" id="close-outline">
    <path stroke="#282828" stroke-linecap="round" stroke-linejoin="round" d="M17.25 17.25 6.75 6.75m10.5 0-10.5 10.5"></path>
  </symbol>
  <symbol id="close" viewBox="0 0 32 32">
      <path stroke-linecap="round" stroke-linejoin="round" stroke-width="1.333" d="M23 23 9 9m14 0L9 23"/>
  </symbol>
  <symbol id="icon-search-3" viewBox="0 0 32 32">
<path stroke-linejoin="round" stroke-linecap="round" stroke-miterlimit="4" stroke-width="2.0800" d="M14.667 25.333c5.891 0 10.667-4.776 10.667-10.667s-4.776-10.667-10.667-10.667c-5.891 0-10.667 4.776-10.667 10.667s4.776 10.667 10.667 10.667z"></path>
<path stroke-linejoin="round" stroke-linecap="round" stroke-miterlimit="4" stroke-width="2.0800" d="M28 28l-5.8-5.8"></path>
</symbol>
<symbol id="icon-x3" viewBox="0 0 32 32">
<path fill="none" stroke="#fff" stroke-width="1.7778" stroke-miterlimit="4" stroke-linecap="round" stroke-linejoin="round" style="stroke: var(--color1, #fff)" d="M24 8l-16 16"></path>
<path fill="none" stroke="#fff" stroke-width="1.7778" stroke-miterlimit="4" stroke-linecap="round" stroke-linejoin="round" style="stroke: var(--color1, #fff)" d="M8 8l16 16"></path>
</symbol>
<symbol id="icon-search-310" viewBox="0 0 32 32">
<path fill="#f5f5f5" style="fill: var(--color1, #f5f5f5)" d="M0 0h32v32h-32v-32z"></path>
<path fill="#111" style="fill: var(--color2, #111)" d="M-942.222-897.778h1365.333v1491.556h-1365.333v-1491.556z"></path>
<path fill="#000" style="fill: var(--color3, #000)" d="M55.111 16c0 21.6-17.511 39.111-39.111 39.111s-39.111-17.511-39.111-39.111c0-21.6 17.511-39.111 39.111-39.111s39.111 17.511 39.111 39.111z"></path>
<path fill="none" stroke="#fff" stroke-width="2.3111" stroke-miterlimit="4" stroke-linecap="round" stroke-linejoin="round" style="stroke: var(--color4, #fff)" d="M14.667 25.333c5.891 0 10.667-4.776 10.667-10.667s-4.776-10.667-10.667-10.667c-5.891 0-10.667 4.776-10.667 10.667s4.776 10.667 10.667 10.667z"></path>
<path fill="none" stroke="#fff" stroke-width="2.3111" stroke-miterlimit="4" stroke-linecap="round" stroke-linejoin="round" style="stroke: var(--color4, #fff)" d="M28.001 28l-5.8-5.8"></path>
</symbol>

</svg>
